<svg width="407" height="145" viewBox="0 0 407 145" fill="none" xmlns="http://www.w3.org/2000/svg">
<path d="M144 142C144 142 158.51 142 191.488 142C224.465 142 211.274 95 241.907 95C272.539 95 398 95 398 95" stroke="#E0E0E0" stroke-width="5"/>
<path d="M83.5127 4.68365C83.5127 4.68365 98.0027 4.68365 130.935 4.68365C163.866 4.68365 150.694 51.52 181.284 51.52C211.874 51.52 398.634 51.52 398.634 51.52" stroke="#E0E0E0" stroke-width="6"/>
<path d="M83.5127 4.68365C83.5127 4.68365 98.0027 4.68365 130.935 4.68365C163.866 4.68365 150.694 51.52 181.284 51.52C211.874 51.52 398.487 51.52 398.487 51.52" stroke="#F2F2F2" stroke-width="2"/>
<circle cx="83.5127" cy="4.3909" r="2" fill="white" stroke="#489FF4" stroke-width="3.02545"/>
<circle cx="398.487" cy="51.52" r="2" fill="white" stroke="#489FF4" stroke-width="3.02545"/>
<circle cx="181.284" cy="51.52" r="2" fill="white" stroke="#489FF4" stroke-width="3.02545"/>
<circle cx="130.935" cy="4.39091" r="2.39091" fill="#489FF4" stroke="white" stroke-width="4"/>
<line x1="104.295" y1="13.1709" x2="344.295" y2="13.1709" stroke="#F2F2F2" stroke-width="2"/>
<path d="M95.123 13.1709L104.295 3.99933L113.466 13.1709L104.295 22.3425L95.123 13.1709Z" fill="white" stroke="#489FF4" stroke-width="4"/>
<path d="M335.123 13.1709L344.295 3.99933L353.466 13.1709L344.295 22.3425L335.123 13.1709Z" fill="white" stroke="#489FF4" stroke-width="4"/>
<line x1="154.644" y1="60.0073" x2="394.644" y2="60.0073" stroke="#F2F2F2" stroke-width="2"/>
<path d="M145.472 60.0073L154.644 50.8357L163.815 60.0073L154.644 69.1788L145.472 60.0073Z" fill="white" stroke="#489FF4" stroke-width="4"/>
<path d="M385.472 60.0073L394.644 50.8357L403.815 60.0073L394.644 69.1788L385.472 60.0073Z" fill="white" stroke="#489FF4" stroke-width="4"/>
<path d="M13.875 62H17.0625V47.375L29.1797 28.1797H25.5234L15.6094 44.1172H15.3281L5.41406 28.1797H1.73438L13.875 47.375V62ZM41.2734 62.4219C46.8516 62.4219 50.5312 59.375 51.5156 55.9531L51.5859 55.7656H48.4688L48.375 55.9297C47.5547 57.8984 45.0234 59.6328 41.3438 59.6328C36.3281 59.6328 33.0938 56.0938 33 50.1875H51.9609V48.875C51.9609 41.3984 47.7891 36.3359 41.0156 36.3359C34.2422 36.3359 29.8359 41.5391 29.8359 49.4141V49.4609C29.8359 57.3828 34.1953 62.4219 41.2734 62.4219ZM41.0156 39.1016C45.3516 39.1016 48.4688 42.0547 48.8203 47.6562H33.0234C33.4219 42.1953 36.6562 39.1016 41.0156 39.1016ZM65.5781 62.4219C69.3047 62.4219 72.3281 60.6641 73.8281 57.6641H74.1094V62H77.2266V44.75C77.2266 39.4297 73.7812 36.3359 67.875 36.3359C62.6484 36.3359 58.8281 38.9141 58.1719 42.9453L58.1484 43.0391H61.2656L61.2891 42.9922C61.9453 40.4844 64.3594 39.1016 67.7812 39.1016C71.8594 39.1016 74.1094 41.0703 74.1094 44.7734V47.1406L66.2344 47.6562C60.3984 48.0547 57.1406 50.6094 57.1406 54.9922V55.0391C57.1406 59.5391 60.7031 62.4219 65.5781 62.4219ZM60.3047 54.9922V54.9453C60.3047 52.0859 62.3672 50.4688 66.6562 50.1875L74.1094 49.6719V52.6016C74.1094 56.6094 70.6875 59.7031 66.1641 59.7031C62.7656 59.7031 60.3047 57.875 60.3047 54.9922ZM85.0078 62H88.1016V46.25C88.1016 42.1719 91.0078 39.2891 94.9453 39.2891C95.9062 39.2891 96.7266 39.3828 97.6406 39.6172V36.5703C97.0312 36.4297 96.1875 36.3359 95.2734 36.3359C91.8516 36.3359 89.3906 38.0234 88.4062 40.9062H88.1016V36.7578H85.0078V62ZM103.242 62H106.336V47C106.336 42.2422 109.359 39.1016 113.812 39.1016C118.195 39.1016 120.375 41.5625 120.375 46.3672V62H123.469V45.5938C123.469 39.7109 120.258 36.3359 114.633 36.3359C110.695 36.3359 107.977 38.1406 106.641 41.1875H106.336V36.7578H103.242V62ZM1.61719 119H6.04688L9.44531 109.32H22.8984L26.2969 119H30.7266L18.2578 85.1797H14.0859L1.61719 119ZM15.9844 90.6406H16.3594L21.6562 105.734H10.6875L15.9844 90.6406ZM45.0703 119.445C51.1406 119.445 54.5391 116.188 55.5703 111.617L55.6172 111.359L51.5859 111.383L51.5391 111.523C50.6016 114.336 48.4453 115.836 45.0469 115.836C40.5469 115.836 37.6406 112.109 37.6406 106.297V106.25C37.6406 100.555 40.5 96.8984 45.0469 96.8984C48.6797 96.8984 50.9297 98.9141 51.5625 101.398L51.5859 101.469H55.6406L55.6172 101.328C54.8672 96.8281 51.1875 93.2891 45.0469 93.2891C37.9688 93.2891 33.4688 98.3984 33.4688 106.25V106.297C33.4688 114.312 37.9922 119.445 45.0703 119.445ZM68.5312 119.445C71.9297 119.445 74.5781 117.969 76.1719 115.273H76.5469V119H80.625V101.703C80.625 96.4531 77.1797 93.2891 71.0156 93.2891C65.625 93.2891 61.7812 95.9609 61.125 99.9219L61.1016 100.062H65.1797L65.2031 99.9922C65.8594 98.0234 67.8516 96.8984 70.875 96.8984C74.6484 96.8984 76.5469 98.5859 76.5469 101.703V104L69.3047 104.445C63.4219 104.797 60.0938 107.398 60.0938 111.898V111.945C60.0938 116.539 63.7266 119.445 68.5312 119.445ZM64.2656 111.852V111.805C64.2656 109.297 65.9531 107.938 69.7969 107.703L76.5469 107.281V109.578C76.5469 113.188 73.5234 115.906 69.375 115.906C66.4453 115.906 64.2656 114.406 64.2656 111.852ZM97.4062 119.445C100.922 119.445 103.734 117.781 105.281 114.969H105.656V119H109.734V83.7031H105.656V97.7188H105.281C103.898 95.0234 100.875 93.2891 97.4062 93.2891C90.9844 93.2891 86.8125 98.4219 86.8125 106.344V106.391C86.8125 114.266 91.0078 119.445 97.4062 119.445ZM98.3438 115.836C93.7266 115.836 90.9844 112.273 90.9844 106.391V106.344C90.9844 100.461 93.7266 96.8984 98.3438 96.8984C102.938 96.8984 105.75 100.508 105.75 106.344V106.391C105.75 112.227 102.938 115.836 98.3438 115.836ZM127.875 119.445C133.828 119.445 137.438 116.07 138.305 112.648L138.352 112.461H134.273L134.18 112.672C133.5 114.195 131.391 115.812 127.969 115.812C123.469 115.812 120.586 112.766 120.469 107.539H138.656V105.945C138.656 98.3984 134.484 93.2891 127.617 93.2891C120.75 93.2891 116.297 98.6328 116.297 106.438V106.461C116.297 114.383 120.656 119.445 127.875 119.445ZM127.594 96.9219C131.32 96.9219 134.086 99.2891 134.508 104.281H120.539C120.984 99.4766 123.844 96.9219 127.594 96.9219ZM144.984 119H149.062V103.344C149.062 99.7812 151.57 96.8984 154.875 96.8984C158.062 96.8984 160.125 98.8438 160.125 101.844V119H164.203V102.758C164.203 99.5469 166.523 96.8984 170.039 96.8984C173.602 96.8984 175.312 98.75 175.312 102.477V119H179.391V101.539C179.391 96.2422 176.508 93.2891 171.352 93.2891C167.859 93.2891 164.977 95.0469 163.617 97.7188H163.242C162.07 95.0938 159.68 93.2891 156.258 93.2891C152.953 93.2891 150.562 94.8594 149.438 97.5781H149.062V93.7344H144.984V119ZM187.969 127.859C192.445 127.859 194.531 126.219 196.617 120.547L206.484 93.7344H202.195L195.281 114.523H194.906L187.969 93.7344H183.609L192.961 119.023L192.492 120.523C191.578 123.43 190.172 124.484 187.852 124.484C187.289 124.484 186.656 124.461 186.164 124.367V127.719C186.727 127.812 187.43 127.859 187.969 127.859Z" fill="white"/>
</svg>
